<svg xmlns="http://www.w3.org/2000/svg" width="12.382" height="25.323" viewBox="0 0 12.382 25.323">
  <path id="Path_451" data-name="Path 451" d="M2.542,13.049H.1V8.205H2.513V7.839c0-.8-.032-1.6.021-2.4A4.505,4.505,0,0,1,6.284,1,7.665,7.665,0,0,1,7.53.891c1.269-.015,2.539,0,3.831,0V5.023H10.5c-.689.012-1.379,0-2.065.05a.919.919,0,0,0-.872.937c-.023.718,0,1.436,0,2.181h3.868c-.151,1.632-.3,3.234-.443,4.851h-3.6V25.208H2.542Z" transform="translate(0.4 -0.385)" fill="none" stroke="#00AEEF" stroke-miterlimit="10" stroke-width="1"/>
</svg>
