<svg xmlns="http://www.w3.org/2000/svg" width="27.17" height="27.167" viewBox="0 0 27.17 27.167">
  <path id="Path_452" data-name="Path 452" d="M43.547,13.2c0,1.914.011,3.828,0,5.742a7.4,7.4,0,0,1-6.276,7.248,7.777,7.777,0,0,1-1.139.087q-5.695.009-11.387,0a7.417,7.417,0,0,1-7.267-6.239,8.286,8.286,0,0,1-.1-1.222q-.011-5.618,0-11.239A7.4,7.4,0,0,1,24.794.124Q30.462.1,36.131.124A7.412,7.412,0,0,1,43.479,6.5a8.971,8.971,0,0,1,.072,1.19V13.2Z" transform="translate(-16.882 0.387)" fill="none" stroke="#00AEEF" stroke-miterlimit="10" stroke-width="1"/>
  <path id="Path_453" data-name="Path 453" d="M22.356,10.5a5.571,5.571,0,1,1,5.574,5.569h0A5.581,5.581,0,0,1,22.356,10.5" transform="translate(-14.35 2.833)" fill="none" stroke="#00AEEF" stroke-miterlimit="10" stroke-width="1"/>
  <path id="Path_454" data-name="Path 454" d="M31.195,3.17a1.563,1.563,0,1,1-1.563,1.563V4.727A1.561,1.561,0,0,1,31.195,3.17" transform="translate(-10.651 1.942)" fill="none" stroke="#00AEEF" stroke-miterlimit="10" stroke-width="1"/>
</svg>
