<svg xmlns="http://www.w3.org/2000/svg" width="29.374" height="29.37" viewBox="0 0 29.374 29.37">
  <path id="Path_457" data-name="Path 457" d="M99.786,14.285V2.5A2.136,2.136,0,0,1,102.175.118h23.567a2.131,2.131,0,0,1,2.37,1.86,2.171,2.171,0,0,1,0,.495V26.085a2.131,2.131,0,0,1-1.872,2.361,2.171,2.171,0,0,1-.495,0H102.136a2.122,2.122,0,0,1-2.347-2.332V14.283m15.084-3.555c-.151-.012-.27-.03-.388-.03-1.092,0-2.184.014-3.276-.009-.368-.008-.468.121-.468.469q.011,6.347,0,12.695c0,.391.151.486.511.48,1.107-.018,2.214-.024,3.318,0,.412.011.508-.13.507-.52-.017-2.214-.033-4.429.011-6.637a5.587,5.587,0,0,1,.373-1.849,2.113,2.113,0,0,1,2.3-1.184,1.832,1.832,0,0,1,1.76,1.563,4.433,4.433,0,0,1,.128.986q.02,3.55.012,7.1c0,.4.1.564.534.552q1.636-.045,3.275,0c.43.012.532-.134.531-.543-.017-2.365,0-4.732-.017-7.1a15.91,15.91,0,0,0-.19-2.4,4.126,4.126,0,0,0-3.055-3.727,7.367,7.367,0,0,0-1.069-.2,4.719,4.719,0,0,0-4.287,1.478c-.151.172-.3.362-.51.627Zm-10.965,6.788v6.319c0,.37.1.5.486.5,1.136-.021,2.273-.018,3.409,0,.339,0,.453-.118.445-.453q-.011-6.387,0-12.775c0-.315-.1-.421-.421-.418-1.136.015-2.273.023-3.409,0-.4-.009-.516.11-.513.51.018,2.112.009,4.213.009,6.319m2.174-13.55a2.486,2.486,0,1,0,2.478,2.492,2.5,2.5,0,0,0-2.478-2.492" transform="translate(-99.267 0.4)" fill="none" stroke="#00AEEF" stroke-miterlimit="10" stroke-width="1"/>
</svg>
