<?xml version="1.0" encoding="UTF-8"?>
<svg id="Layer_1" xmlns="http://www.w3.org/2000/svg" version="1.1" viewBox="0 0 402 566.93">
  <!-- Generator: Adobe Illustrator 29.1.0, SVG Export Plug-In . SVG Version: 2.1.0 Build 142)  -->
  <defs>
    <style>
      .st0 {
        fill: #939598;
      }
    </style>
  </defs>
  <path class="st0" d="M201.86,16.86C96.07,16.86,10.31,102.62,10.31,208.42s191.55,341.34,191.55,341.34c0,0,191.56-235.54,191.56-341.34S307.66,16.86,201.86,16.86ZM201.86,315.23c-60.27,0-109.03-48.76-109.03-109.03s48.76-109.03,109.03-109.03,109.03,48.85,109.03,109.03-48.85,109.03-109.03,109.03Z"/>
  <path class="st0" d="M201.86,295.69c-50.31,0-91.23-40.93-91.23-91.23s40.93-91.23,91.23-91.23,91.23,40.93,91.23,91.23-40.93,91.23-91.23,91.23ZM201.86,130.27c-40.91,0-74.19,33.28-74.19,74.18s33.28,74.19,74.19,74.19,74.19-33.28,74.19-74.19-33.28-74.18-74.19-74.18Z"/>
</svg>