<svg xmlns="http://www.w3.org/2000/svg" width="32.932" height="27.189" viewBox="0 0 32.932 27.189">
  <path id="Path_455" data-name="Path 455" d="M41.291,23.887a13.569,13.569,0,0,0,9.548-2.715,6.849,6.849,0,0,1-6.064-4.507l2.691-.128a7.09,7.09,0,0,1-5.044-6.516l2.917.784C42.323,7.462,41.7,4.389,43.431,1.968A18.889,18.889,0,0,0,56.9,8.783a16.525,16.525,0,0,1,.021-2.607,6.564,6.564,0,0,1,10.86-3.848,1.056,1.056,0,0,0,1.207.27c1.1-.412,2.208-.813,3.394-1.247a7.906,7.906,0,0,1-2.448,3.364c.342-.056.689-.1,1.027-.17.368-.081.73-.187,1.091-.3s.7-.232,1.056-.348l.151.17c-.837.87-1.634,1.784-2.527,2.593a1.694,1.694,0,0,0-.637,1.4,18.774,18.774,0,0,1-28.258,16.2c-.151-.083-.273-.192-.542-.382" transform="translate(-41.002 -0.145)" fill="none" stroke="#00AEEF" stroke-miterlimit="10" stroke-width="1"/>
</svg>
