<svg xmlns="http://www.w3.org/2000/svg" width="33.567" height="23.77" viewBox="0 0 33.567 23.77">
  <path id="Path_456" data-name="Path 456" d="M69.088,13.666c0-.694-.026-1.391,0-2.083.041-.905.1-1.81.2-2.715.1-.946.211-1.895.406-2.824a4,4,0,0,1,3.5-3.2c1.038-.13,2.082-.219,3.124-.3.715-.057,1.433-.087,2.149-.1,2.893-.057,5.785-.122,8.678-.151,1.5-.012,2.993.054,4.489.1.742.021,1.486.048,2.226.1.905.065,1.81.151,2.706.249A9.335,9.335,0,0,1,98.2,3.02,3.884,3.884,0,0,1,101,6.06a18.734,18.734,0,0,1,.353,2.276c.1,1,.169,2.008.2,3.017.044,1.3.069,2.61.045,3.913-.02,1.056-.119,2.1-.192,3.147a14.254,14.254,0,0,1-.495,3.208A3.862,3.862,0,0,1,97.8,24.452a20.774,20.774,0,0,1-2.644.3c-1.448.1-2.9.172-4.352.2-2.6.056-5.2.077-7.8.1-.828,0-1.659-.018-2.483-.045-1.226-.042-2.454-.087-3.68-.151-.839-.045-1.679-.109-2.513-.2a7.981,7.981,0,0,1-2.18-.443A3.908,3.908,0,0,1,69.7,21.339a18.857,18.857,0,0,1-.356-2.3c-.1-.968-.151-1.941-.205-2.913-.044-.818-.056-1.637-.081-2.456h.03m12,4.919,8.53-4.91-8.528-4.91Z" transform="translate(-68.54 -1.785)" fill="none" stroke="#00AEEF" stroke-miterlimit="10" stroke-width="1"/>
</svg>
